<?xml version="1.0" standalone="no"?>
<!DOCTYPE svg PUBLIC "-//W3C//DTD SVG 20010904//EN"
 "http://www.w3.org/TR/2001/REC-SVG-20010904/DTD/svg10.dtd">
<svg version="1.0" xmlns="http://www.w3.org/2000/svg"
 width="512.000000pt" height="512.000000pt" viewBox="0 0 512.000000 512.000000"
 preserveAspectRatio="xMidYMid meet">
<metadata>
Created by potrace 1.11, written by Peter Selinger 2001-2013
</metadata>
<g transform="translate(0.000000,512.000000) scale(0.100000,-0.100000)"
fill="#000000" stroke="none">
<path d="M1747 4435 c-141 -39 -271 -145 -336 -276 -50 -99 -65 -171 -58 -279
13 -221 164 -415 371 -479 50 -15 61 -22 60 -40 0 -11 -1 -48 -2 -81 l-2 -60
-521 0 c-579 0 -568 1 -610 -67 l-22 -35 -1 -1177 c-1 -1119 0 -1178 17 -1204
10 -16 32 -37 50 -47 31 -19 60 -20 1208 -20 l1176 0 34 23 c73 48 69 1 69
879 l0 788 63 31 c34 17 81 45 104 60 23 16 45 29 50 29 4 0 204 -196 443
-436 239 -239 447 -442 462 -450 38 -20 97 -17 135 6 45 27 66 73 60 128 -5
44 -14 54 -457 497 l-451 451 37 55 c196 288 221 688 63 1003 -53 104 -87 153
-168 238 -140 149 -289 237 -501 295 -50 13 -103 17 -230 17 -178 0 -264 -15
-385 -69 l-54 -24 -35 49 c-64 88 -179 165 -293 195 -69 18 -210 18 -276 0z
m403 -235 c11 -11 20 -30 20 -43 0 -25 -299 -514 -327 -534 -49 -37 -86 -4
-134 118 -27 70 -38 88 -61 97 -15 5 -33 22 -40 36 -10 23 -8 31 9 54 17 23
28 27 67 26 53 0 98 -35 118 -91 7 -18 15 -33 18 -33 4 0 59 85 124 189 64
104 122 192 129 195 27 10 58 5 77 -14z m835 -170 c262 -67 480 -284 551 -550
24 -90 25 -291 1 -380 -23 -89 -96 -233 -154 -305 l-48 -59 -5 359 c-5 353 -5
361 -28 396 -42 68 -46 69 -553 69 l-451 0 27 35 c61 81 105 217 105 326 0 48
0 48 47 69 158 70 337 84 508 40z"/>
<path d="M903 3870 c-103 -63 -80 -226 38 -261 78 -24 168 33 183 115 9 50
-22 119 -66 146 -43 26 -113 26 -155 0z m105 -92 c34 -34 -6 -90 -48 -68 -35
19 -20 80 20 80 9 0 21 -5 28 -12z"/>
<path d="M4222 3356 c-34 -35 -62 -69 -62 -75 0 -15 37 -51 53 -51 7 0 28 16
47 35 19 19 38 35 43 35 5 0 27 -16 48 -35 44 -40 59 -43 82 -17 27 30 20 50
-40 113 -75 79 -91 79 -171 -5z"/>
<path d="M4568 2915 c-64 -35 -92 -148 -50 -204 29 -40 81 -71 119 -71 148 0
206 186 84 267 -40 27 -111 30 -153 8z m100 -97 c17 -17 15 -55 -4 -66 -25
-14 -53 -3 -60 24 -11 42 34 72 64 42z"/>
<path d="M3922 990 c-68 -16 -122 -101 -106 -167 17 -69 73 -113 145 -113 80
0 139 62 139 147 0 89 -87 154 -178 133z m59 -100 c38 -21 18 -80 -28 -80 -53
0 -49 76 5 89 2 1 12 -4 23 -9z"/>
<path d="M3412 586 c-34 -35 -62 -67 -62 -71 0 -3 5 -15 10 -26 17 -31 61 -24
100 16 l34 35 36 -35 c41 -40 83 -47 100 -16 16 32 13 40 -47 102 -75 79 -91
79 -171 -5z"/>
</g>
</svg>
