<?xml version="1.0" standalone="no"?>
<!DOCTYPE svg PUBLIC "-//W3C//DTD SVG 20010904//EN"
 "http://www.w3.org/TR/2001/REC-SVG-20010904/DTD/svg10.dtd">
<svg version="1.0" xmlns="http://www.w3.org/2000/svg"
 width="330.000000pt" height="330.000000pt" viewBox="0 0 330.000000 330.000000"
 preserveAspectRatio="xMidYMid meet">
<g transform="translate(0.000000,330.000000) scale(0.100000,-0.100000)"
fill="#000000" stroke="none">
<path d="M1230 2908 c-11 -18 -20 -50 -20 -70 0 -57 -35 -88 -182 -163 -218
-110 -320 -200 -349 -307 -5 -21 -12 -38 -14 -38 -3 0 -23 16 -45 36 -53 48
-147 104 -174 104 -33 0 -110 -53 -134 -91 -39 -65 -81 -187 -108 -320 -45
-220 -38 -439 22 -684 28 -113 61 -213 80 -235 6 -8 32 -59 57 -112 50 -108
111 -181 212 -254 86 -64 135 -54 135 26 l0 39 94 -6 c91 -6 205 11 260 39 15
8 26 2 60 -31 46 -45 84 -53 124 -25 27 19 29 57 3 107 l-19 38 28 56 c27 52
29 54 40 33 6 -12 14 -19 17 -16 3 3 -4 20 -15 38 -20 32 -21 88 -2 88 5 0 22
-17 39 -37 17 -21 30 -32 31 -24 0 8 -19 32 -42 54 -35 33 -42 46 -43 81 -1
25 -13 61 -28 87 -25 42 -26 51 -20 127 6 80 5 82 -16 82 -24 0 -89 -30 -135
-63 l-28 -20 -65 69 c-44 48 -79 98 -111 163 -46 93 -47 96 -47 190 0 111 14
163 79 296 55 112 69 151 70 195 1 30 -2 35 -25 38 -14 2 -47 -6 -73 -18 -27
-11 -51 -18 -54 -16 -6 7 34 63 77 109 40 43 58 52 219 107 113 40 193 85 212
120 14 26 12 99 -4 135 -13 28 -13 27 -9 -30 8 -105 -22 -131 -217 -200 -189
-65 -284 -136 -335 -248 -28 -60 -47 -137 -34 -137 4 0 20 20 35 45 21 37 38
51 91 75 118 55 137 50 87 -23 -14 -21 -23 -44 -21 -51 3 -8 -3 -26 -12 -42
-81 -134 -99 -184 -107 -301 -5 -79 -3 -112 11 -159 22 -79 78 -178 134 -238
l46 -49 -35 8 c-99 22 -347 -1 -319 -29 2 -3 36 2 74 10 86 18 164 16 274 -7
l83 -19 42 25 c64 37 96 47 96 30 0 -7 -10 -17 -22 -20 -29 -9 -78 -54 -78
-72 0 -7 11 -13 25 -13 26 0 75 -39 75 -60 0 -6 9 -23 19 -38 10 -15 22 -42
25 -59 5 -31 3 -33 -22 -33 l-27 -1 28 -15 c30 -16 41 -69 12 -58 -20 8 -19
-6 1 -20 14 -11 13 -17 -5 -67 -26 -69 -57 -97 -146 -136 -91 -39 -189 -56
-295 -50 -109 6 -131 10 -210 43 -87 35 -97 43 -130 105 l-28 53 22 16 c31 23
73 40 101 40 13 0 27 5 30 10 12 20 -66 10 -114 -15 l-49 -24 -4 24 c-3 13 4
49 14 80 20 56 20 57 0 131 -15 54 -18 83 -12 100 11 28 16 29 64 9 106 -44
136 -54 141 -45 10 16 -124 72 -175 73 -44 2 -45 1 -54 -34 -7 -28 -4 -52 12
-104 14 -46 18 -74 12 -86 -22 -41 -31 -112 -20 -165 21 -100 66 -143 200
-190 l81 -29 -3 -40 c-4 -57 -35 -59 -116 -5 -90 60 -145 129 -193 240 -23 52
-52 115 -65 140 -66 126 -120 381 -123 585 -3 173 39 412 93 530 39 86 112
155 163 155 10 0 48 -29 83 -65 36 -36 82 -77 102 -92 25 -17 38 -33 38 -49 0
-12 5 -26 10 -29 6 -4 10 16 10 53 0 81 44 166 125 247 49 48 88 73 191 123
190 94 192 96 224 221 11 41 13 43 45 39 29 -3 32 -1 25 13 -8 14 -31 29 -46
29 -2 0 -13 -15 -24 -32z m-15 -1475 c-9 -36 -8 -35 -41 -27 l-28 7 30 23 c38
31 48 30 39 -3z m35 -555 c0 -64 -53 -77 -104 -25 l-31 32 50 25 c49 25 50 26
68 7 9 -11 17 -28 17 -39z"/>
<path d="M458 1383 c-5 -19 19 -113 31 -125 4 -5 30 16 59 45 50 50 52 54 35
69 -10 9 -41 19 -70 23 -45 6 -52 4 -55 -12z m85 -21 c16 -7 14 -11 -13 -37
-34 -32 -37 -31 -46 13 -6 29 -4 32 17 31 13 0 32 -4 42 -7z"/>
<path d="M1077 1253 c-4 -3 -7 -19 -7 -34 0 -29 24 -50 48 -42 21 8 34 53 21
69 -12 15 -51 19 -62 7z m40 -29 c-3 -3 -12 -4 -19 -1 -8 3 -5 6 6 6 11 1 17
-2 13 -5z"/>
<path d="M685 1216 c-34 -51 21 -101 66 -60 19 17 16 37 -9 67 -21 23 -39 21
-57 -7z"/>
<path d="M1040 1105 c0 -21 -21 -28 -52 -16 -19 7 -31 6 -44 -4 -30 -22 -57
-19 -51 6 4 15 1 19 -11 17 -11 -2 -17 -13 -17 -33 0 -24 5 -31 24 -33 13 -2
33 1 45 7 12 6 44 12 71 13 46 3 50 5 53 31 2 15 -1 27 -7 27 -6 0 -11 -7 -11
-15z"/>
<path d="M539 1050 c-32 -17 -60 -50 -43 -50 14 0 104 54 104 62 0 13 -22 9
-61 -12z"/>
</g>
</svg>
